<svg xmlns="http://www.w3.org/2000/svg" xmlns:xlink="http://www.w3.org/1999/xlink" x="0px" y="0px" width="24px" height="24px" viewBox="0 0 24 24"><g transform="translate(0, 0)"><path data-color="color-2" d="M3,9H1a1,1,0,0,0-1,1V22a1,1,0,0,0,1,1H4V10A1,1,0,0,0,3,9Z" fill="#c3c3c3"></path>
<path d="M21.882,8.133A2.986,2.986,0,0,0,21,8H15V5c0-3.824-2.589-4.942-3.958-5a1.017,1.017,0,0,0-.734.277A1,1,0,0,0,10,1V5.638l-4,4.8V23H18.23A2.985,2.985,0,0,0,21.1,20.882l2.769-9A3,3,0,0,0,21.882,8.133Z" fill="#c3c3c3"></path></g></svg>